<?xml version="1.0" encoding="UTF-8" standalone="no"?>
<!-- Generator: Adobe Illustrator 16.0.0, SVG Export Plug-In . SVG Version: 6.00 Build 0)  -->

<svg
   xmlns:dc="http://purl.org/dc/elements/1.1/"
   xmlns:cc="http://creativecommons.org/ns#"
   xmlns:rdf="http://www.w3.org/1999/02/22-rdf-syntax-ns#"
   xmlns:svg="http://www.w3.org/2000/svg"
   xmlns="http://www.w3.org/2000/svg"
   xmlns:sodipodi="http://sodipodi.sourceforge.net/DTD/sodipodi-0.dtd"
   xmlns:inkscape="http://www.inkscape.org/namespaces/inkscape"
   version="1.1"
   id="svg16081"
   sodipodi:docname="huetro-icon-1.svg"
   inkscape:version="0.48.2 r9819"
   x="0px"
   y="0px"
   width="168.44"
   height="168.44099"
   viewBox="0 0 168.44 168.441"
   enable-background="new 0 0 744.094 1052.361"
   xml:space="preserve"
   inkscape:export-filename="/Users/viv/Downloads/huetro-icon-1.png"
   inkscape:export-xdpi="273.57001"
   inkscape:export-ydpi="273.57001"><metadata
   id="metadata3081"><rdf:RDF><cc:Work
       rdf:about=""><dc:format>image/svg+xml</dc:format><dc:type
         rdf:resource="http://purl.org/dc/dcmitype/StillImage" /><dc:title></dc:title></cc:Work></rdf:RDF></metadata><defs
   id="defs3079" />
<rect
   x="-1.0535045e-05"
   y="0"
   width="168.44"
   height="168.44099"
   id="rect3057"
   style="fill:none" />
<sodipodi:namedview
   showgrid="false"
   inkscape:cy="-27.238986"
   inkscape:cx="86.453003"
   inkscape:zoom="0.35"
   borderopacity="1.0"
   bordercolor="#666666"
   pagecolor="#ffffff"
   id="base"
   inkscape:window-maximized="0"
   inkscape:window-y="20"
   inkscape:current-layer="svg16081"
   inkscape:document-units="px"
   inkscape:pageopacity="0.0"
   inkscape:window-x="20"
   inkscape:window-height="454"
   inkscape:window-width="483"
   inkscape:pageshadow="2"
   fit-margin-top="0"
   fit-margin-left="0"
   fit-margin-right="0"
   fit-margin-bottom="0">
	</sodipodi:namedview>
<g
   id="g3060"
   transform="translate(-288.54701,-336.681)">
	<g
   id="g3062">
		<path
   d="M 443.91,479.096 H 301.625 l -0.691,-1.776 c -4.135,-10.622 -6.229,-21.898 -6.229,-33.518 0,-47.155 35.019,-85.52 78.064,-85.52 43.045,0 78.064,38.365 78.064,85.52 0,11.62 -2.098,22.896 -6.23,33.518 l -0.693,1.776 z M 305.46,473.52 h 134.615 c 3.438,-9.453 5.183,-19.44 5.183,-29.717 0,-44.081 -32.52,-79.943 -72.489,-79.943 -39.972,0 -72.488,35.862 -72.488,79.943 0,10.279 1.741,20.266 5.179,29.717 z"
   id="path3064"
   inkscape:connector-curvature="0"
   style="fill:#297bff" />
	</g>
	<g
   id="g3066">
		<polygon
   points="373.464,421.709 392.982,374.314 423.417,460.742 430.156,460.742 430.156,467.711 389.033,467.711 389.033,460.742 397.396,460.277 387.638,433.326 372.769,467.711 358.596,433.558 348.837,460.277 356.737,460.277 356.737,467.711 315.38,467.711 315.38,460.742 322.817,460.742 352.789,374.314 "
   id="polygon3068"
   style="fill:#ff0000" />
		<path
   d="m 372.751,470.094 -14.101,-33.979 -8.483,23.232 h 7.499 v 9.294 h -43.213 v -8.829 h 7.702 l 30.533,-88.05 20.751,47.567 19.609,-47.621 31.026,88.104 h 7.009 v 8.829 h -42.98 v -8.779 l 7.993,-0.443 -8.535,-23.574 -14.81,34.249 z m 17.211,-3.312 h 39.265 v -5.113 h -6.468 l -29.845,-84.751 -19.426,47.173 -20.602,-47.227 -29.411,84.805 h -7.165 v 5.113 h 39.497 v -5.576 h -8.298 l 11.03,-30.205 14.246,34.329 14.929,-34.521 10.979,30.328 -8.732,0.485 v 5.16 z"
   id="path3070"
   inkscape:connector-curvature="0"
   style="fill:#ffbe7d" />
	</g>
	<linearGradient
   id="SVGID_1_"
   gradientUnits="userSpaceOnUse"
   x1="375.53561"
   y1="481.51779"
   x2="371.58591"
   y2="386.49121">
		<stop
   offset="0"
   style="stop-color:#FFFFFF"
   id="stop3073" />
		<stop
   offset="1"
   style="stop-color:#FFFFFF;stop-opacity:0"
   id="stop3075" />
	</linearGradient>
	<ellipse
   cx="372.76901"
   cy="414.97101"
   rx="49.835999"
   ry="32.992001"
   id="ellipse3077"
   sodipodi:cx="372.76901"
   sodipodi:cy="414.97101"
   sodipodi:rx="49.835999"
   sodipodi:ry="32.992001"
   style="fill:url(#SVGID_1_)"
   d="m 422.60501,414.97101 c 0,18.22098 -22.31234,32.992 -49.836,32.992 -27.52366,0 -49.836,-14.77102 -49.836,-32.992 0,-18.22098 22.31234,-32.992 49.836,-32.992 27.52366,0 49.836,14.77102 49.836,32.992 z" />
</g>
</svg>